<?xml version="1.0" encoding="utf-8"?>
<!-- Generator: Adobe Illustrator 27.5.0, SVG Export Plug-In . SVG Version: 6.00 Build 0)  -->
<svg version="1.1" xmlns="http://www.w3.org/2000/svg" xmlns:xlink="http://www.w3.org/1999/xlink" x="0px" y="0px"
	 viewBox="0 0 500 500" style="enable-background:new 0 0 500 500;" xml:space="preserve">
<g id="Background_Simple">
	<g>
		<path style="opacity:0.7;fill:#FFFFFF;" d="M67.931,167.086c0,0-27.877,71.988,11.297,144.503
			c39.174,72.516,119.879,110.802,184.469,143.548c64.59,32.746,131.661,16.799,163.534-36.838
			c31.873-53.637-11.845-91.928-11.897-168.418c-0.051-76.49,11.447-96.742-29.963-161.364
			c-41.41-64.623-143.059-78.925-219.9-30.996C88.631,105.45,67.931,167.086,67.931,167.086z"/>
	</g>
	<g>
		<path style="fill:#92E3A9;" d="M85.823,453.222c0,0-89.407-122.393-34.022-216.462s165.432-29.509,186.377-117.298
			c20.945-87.789,97.419-102.185,169.939,7.599s55.175,262.449,16.77,326.161H85.823z"/>
		<path style="opacity:0.7;fill:#FFFFFF;" d="M85.823,453.222c0,0-89.407-122.393-34.022-216.462s165.432-29.509,186.377-117.298
			c20.945-87.789,97.419-102.185,169.939,7.599s55.175,262.449,16.77,326.161H85.823z"/>
	</g>
</g>
<g id="Floor">
	
		<line style="fill:none;stroke:#263238;stroke-linecap:round;stroke-linejoin:round;stroke-miterlimit:10;" x1="39.319" y1="453.222" x2="460.681" y2="453.222"/>
</g>
<g id="Chair">
	<g>
		<g>
			
				<line style="fill:none;stroke:#263238;stroke-linecap:round;stroke-linejoin:round;stroke-miterlimit:10;" x1="124.062" y1="339.114" x2="124.062" y2="452.639"/>
			
				<line style="fill:none;stroke:#263238;stroke-linecap:round;stroke-linejoin:round;stroke-miterlimit:10;" x1="124.062" y1="324.872" x2="124.062" y2="334.199"/>
			<polyline style="fill:none;stroke:#263238;stroke-linecap:round;stroke-linejoin:round;stroke-miterlimit:10;" points="
				385.262,452.895 385.262,301.795 124.062,301.795 124.062,319.597 			"/>
			<polyline style="fill:none;stroke:#263238;stroke-linecap:round;stroke-linejoin:round;stroke-miterlimit:10;" points="
				358.572,310.662 374.468,310.662 374.468,445.461 			"/>
			<polyline style="fill:none;stroke:#263238;stroke-linecap:round;stroke-linejoin:round;stroke-miterlimit:10;" points="
				134.856,452.639 134.856,310.662 349.341,310.662 			"/>
			
				<line style="fill:none;stroke:#263238;stroke-linecap:round;stroke-linejoin:round;stroke-miterlimit:10;" x1="142.472" y1="293.397" x2="147.523" y2="293.397"/>
			<polyline style="fill:none;stroke:#263238;stroke-linecap:round;stroke-linejoin:round;stroke-miterlimit:10;" points="
				154.77,293.397 389.816,293.397 389.816,301.736 119.507,301.736 119.507,293.397 139.252,293.397 			"/>
		</g>
		<g>
			
				<line style="fill:none;stroke:#263238;stroke-linecap:round;stroke-linejoin:round;stroke-miterlimit:10;" x1="430.952" y1="289.276" x2="428.471" y2="305.374"/>
			<path style="fill:none;stroke:#263238;stroke-linecap:round;stroke-linejoin:round;stroke-miterlimit:10;" d="M415.742,223.231
				h12.002c7.038,0,12.42,6.275,11.348,13.231l-6.783,44.006"/>
			
				<line style="fill:none;stroke:#263238;stroke-linecap:round;stroke-linejoin:round;stroke-miterlimit:10;" x1="403.541" y1="223.231" x2="412.309" y2="223.231"/>
			<path style="fill:none;stroke:#263238;stroke-linecap:round;stroke-linejoin:round;stroke-miterlimit:10;" d="M352.158,289.2
				l8.668-56.237c0.863-5.6,5.682-9.733,11.348-9.733h25.112"/>
			
				<line style="fill:none;stroke:#263238;stroke-linecap:round;stroke-linejoin:round;stroke-miterlimit:10;" x1="344.326" y1="340.011" x2="348.232" y2="314.669"/>
			<path style="fill:none;stroke:#263238;stroke-linecap:round;stroke-linejoin:round;stroke-miterlimit:10;" d="M388.721,372.347
				h11.943c5.924,0,11.301-2.342,15.255-6.151"/>
			
				<line style="fill:none;stroke:#263238;stroke-linecap:round;stroke-linejoin:round;stroke-miterlimit:10;" x1="322.912" y1="372.347" x2="364.524" y2="372.347"/>
			<path style="fill:none;stroke:#263238;stroke-linecap:round;stroke-linejoin:round;stroke-miterlimit:10;" d="M305.714,368.591
				c3.51,2.371,7.742,3.756,12.297,3.756"/>
			<path style="fill:none;stroke:#263238;stroke-linecap:round;stroke-linejoin:round;stroke-miterlimit:10;" d="M370.978,340.011
				h-66.762c-4.528,0-8.199,3.671-8.199,8.199v2.143c0,5.157,1.775,9.899,4.747,13.65"/>
			<path style="fill:none;stroke:#263238;stroke-linecap:round;stroke-linejoin:round;stroke-miterlimit:10;" d="M422.057,345.124
				c-1.219-2.999-4.162-5.113-7.598-5.113H402.56"/>
			<polyline style="fill:none;stroke:#263238;stroke-linecap:round;stroke-linejoin:round;stroke-miterlimit:10;" points="
				371.123,378.392 342.552,378.392 336.552,372.347 			"/>
			<path style="fill:none;stroke:#263238;stroke-linecap:round;stroke-linejoin:round;stroke-miterlimit:10;" d="M366.094,400.307
				h-13.514c-1.003,0-1.816-0.813-1.816-1.816v-20.099h17.145v20.099C367.91,399.494,367.097,400.307,366.094,400.307z"/>
			
				<rect x="353.974" y="400.307" style="fill:none;stroke:#263238;stroke-linecap:round;stroke-linejoin:round;stroke-miterlimit:10;" width="10.726" height="24.693"/>
			<path style="fill:none;stroke:#263238;stroke-linecap:round;stroke-linejoin:round;stroke-miterlimit:10;" d="M310.186,440.201
				C328.053,428.303,353.974,425,353.974,425"/>
			<path style="fill:none;stroke:#263238;stroke-linecap:round;stroke-linejoin:round;stroke-miterlimit:10;" d="M371.081,436.651
				C353,434,335,438,318.033,442.38"/>
			<path style="fill:none;stroke:#263238;stroke-linecap:round;stroke-linejoin:round;stroke-miterlimit:10;" d="M400.642,442.38
				c-4.124-1.058-8.283-1.987-12.453-2.844"/>
			<path style="fill:none;stroke:#263238;stroke-linecap:round;stroke-linejoin:round;stroke-miterlimit:10;" d="M388.721,430.809
				c6.904,2.366,13.676,5.341,19.768,9.392"/>
			<path style="fill:none;stroke:#263238;stroke-linecap:round;stroke-linejoin:round;stroke-miterlimit:10;" d="M364.7,425
				c2.258,0.305,4.502,0.715,6.735,1.165"/>
			
				<circle style="fill:none;stroke:#263238;stroke-linecap:round;stroke-linejoin:round;stroke-miterlimit:10;" cx="312.286" cy="446.927" r="6.725"/>
			
				<circle style="fill:none;stroke:#263238;stroke-linecap:round;stroke-linejoin:round;stroke-miterlimit:10;" cx="407.286" cy="446.927" r="6.725"/>
			<path style="fill:none;stroke:#263238;stroke-linecap:round;stroke-linejoin:round;stroke-miterlimit:10;" d="M399.132,358.628
				l5.277-35.733c0.506-3.424,3.212-6.104,6.641-6.575l24.528-3.37c1.884-0.259,3.287-1.869,3.287-3.77l0,0
				c0-2.102-1.704-3.806-3.806-3.806h-3.092l-24.299,3.742c-5.95,0.916-10.581,5.651-11.364,11.621L391.22,359.5
				c-0.188,1.434,0.928,2.705,2.374,2.705l0,0"/>
			<path style="fill:none;stroke:#263238;stroke-linecap:round;stroke-linejoin:round;stroke-miterlimit:10;" d="M435.577,312.949
				l-6.38,33.941l0,0c1.762,0,3.19,1.428,3.19,3.19v6.482c0,4.47-3.623,8.093-8.093,8.093h-29.826"/>
			<polyline style="fill:none;stroke:#263238;stroke-linecap:round;stroke-linejoin:round;stroke-miterlimit:10;" points="
				431.35,313.53 424.714,346.168 407.286,346.168 			"/>
			
				<line style="fill:none;stroke:#263238;stroke-linecap:round;stroke-linejoin:round;stroke-miterlimit:10;" x1="304.305" y1="320.736" x2="302.518" y2="334.357"/>
			<path style="fill:none;stroke:#263238;stroke-linecap:round;stroke-linejoin:round;stroke-miterlimit:10;" d="M310.515,335.717
				l1.893-12.822c0.506-3.424,3.212-6.104,6.641-6.575l24.528-3.37"/>
		</g>
	</g>
</g>
<g id="Document">
	<g>
		
			<rect x="66.619" y="97.445" style="fill:#FFFFFF;stroke:#263238;stroke-linecap:round;stroke-linejoin:round;stroke-miterlimit:10;" width="201.081" height="355.778"/>
		<line style="fill:none;stroke:#263238;stroke-miterlimit:10;" x1="256.218" y1="312.374" x2="78.011" y2="312.374"/>
		<line style="fill:none;stroke:#263238;stroke-miterlimit:10;" x1="78.011" y1="238.743" x2="256.218" y2="238.743"/>
		<g>
			
				<rect x="78.011" y="141.945" style="fill:#92E3A9;stroke:#263238;stroke-linecap:round;stroke-linejoin:round;stroke-miterlimit:10;" width="58.022" height="85.561"/>
			<g>
				<path style="fill:#92E3A9;stroke:#263238;stroke-linecap:round;stroke-linejoin:round;stroke-miterlimit:10;" d="
					M131.22,227.505v-27.663c-5.702-2.394-15.165-4.557-24.892-4.454c-10.465,0.111-19.742,2.021-24.757,4.207v27.91H131.22z"/>
				<path style="fill:#263238;" d="M103.321,227.505h6.705l-1.618-20.579l2.393-5.135c0,0-3.874-1.385-6.859,0l1.524,5.135
					L103.321,227.505z"/>
				<polygon style="fill:#92E3A9;stroke:#263238;stroke-linecap:round;stroke-linejoin:round;stroke-miterlimit:10;" points="
					114.286,192.107 118.743,195.385 113.22,208.714 107.022,201.791 100.165,208.714 94.028,195.385 98.484,192.107 				"/>
				<path style="fill:#FFFFFF;stroke:#263238;stroke-linecap:round;stroke-linejoin:round;stroke-miterlimit:10;" d="
					M115.586,193.731c0,0-4.788,7.021-8.564,7.119c-2.675,0.07-9.542-6.567-9.542-6.567c1.858-1.668,1.971-4.755,1.698-7.183
					c-0.22-1.983-0.695-3.526-0.695-3.526h15.803c-0.962,3.158-0.926,5.426-0.552,7.005
					C114.286,192.9,115.586,193.731,115.586,193.731z"/>
				<path style="fill:#263238;" d="M113.734,190.578c-11.422,2.992-13.689-3.532-13.689-3.532l-0.867,0.053
					c-0.22-1.983-0.695-3.526-0.695-3.526h15.803C113.325,186.732,113.36,188.999,113.734,190.578z"/>
				<g>
					<path style="fill:#263238;" d="M118.685,172.27c0,0,7.59-24.241-20.201-17.66c0,0-2.274-1.183-3.659-0.638
						c-1.385,0.545-2.732,10.331-0.377,19.381L118.685,172.27z"/>
					<g>
						<path style="fill:#FFFFFF;stroke:#263238;stroke-linecap:round;stroke-linejoin:round;stroke-miterlimit:10;" d="
							M117.727,172.478c0,0,1.273-1.383,1.899-0.928c0.625,0.455,1.364,1.743,1.023,2.918c-0.341,1.175-1.819,3.221-1.933,4.415
							c-0.114,1.194-0.88,2.546-1.719,1.756C116.158,179.849,117.727,172.478,117.727,172.478z"/>
						<path style="fill:#FFFFFF;stroke:#263238;stroke-linecap:round;stroke-linejoin:round;stroke-miterlimit:10;" d="
							M95.044,172.478c0,0-1.273-1.383-1.898-0.928c-0.625,0.455-1.364,1.743-1.023,2.918c0.341,1.175,1.819,3.221,1.933,4.415
							c0.114,1.194,0.88,2.546,1.719,1.756C96.613,179.849,95.044,172.478,95.044,172.478z"/>
					</g>
					<path style="fill:#FFFFFF;stroke:#263238;stroke-linecap:round;stroke-linejoin:round;stroke-miterlimit:10;" d="
						M106.117,156.492c16.007,0,12.201,21.319,9.256,28.163c-1.034,2.404-6.395,5.558-8.987,5.558c-2.41,0-7.927-3.77-8.905-6.028
						C94.501,177.307,90.86,156.492,106.117,156.492z"/>
					<g>
						<path style="fill:none;stroke:#263238;stroke-linecap:round;stroke-linejoin:round;stroke-miterlimit:10;" d="M108.83,169.655
							c0,0,4.169-1.289,5.457,1.288"/>
						<path style="fill:#263238;" d="M111.916,173.16c0,0.492-0.25,0.891-0.558,0.891c-0.308,0-0.558-0.399-0.558-0.891
							c0-0.492,0.25-0.891,0.558-0.891C111.666,172.27,111.916,172.668,111.916,173.16z"/>
						<path style="fill:none;stroke:#263238;stroke-linecap:round;stroke-linejoin:round;stroke-miterlimit:10;" d="
							M103.941,169.655c0,0-4.169-1.289-5.457,1.288"/>
						<path style="fill:#263238;" d="M100.855,173.16c0,0.492,0.25,0.891,0.558,0.891c0.308,0,0.558-0.399,0.558-0.891
							c0-0.492-0.25-0.891-0.558-0.891C101.105,172.27,100.855,172.668,100.855,173.16z"/>
					</g>
					<path style="fill:#263238;" d="M97.395,162.903c-0.853,1.086,0,4.44,0.227,5.804c0.227,1.364-1.876,2.312-1.592,5.76
						l-0.813,1.19c0,0-2.258-5.549-1.69-10.324c0.568-4.775,3.583-6.631,3.583-6.631s1.374-4.124,9.429-4.093
						c8.681,0.033,9.557,4.732,9.557,4.732s5.886,3.925,1.532,16.715l-0.945-1.59c0,0,0.459-2.577-1.099-4.851
						c-0.758-1.107,0.455-4.434,0.171-6.139C115.471,161.773,98.247,161.817,97.395,162.903z"/>
					<path style="fill:none;stroke:#263238;stroke-linecap:round;stroke-linejoin:round;stroke-miterlimit:10;" d="M107.338,172.27
						c0,0,0.241,4.922,0.946,6.305c0.705,1.383-1.761,1.618-2.818,0.796"/>
					<path style="fill:#FFFFFF;stroke:#263238;stroke-linecap:round;stroke-linejoin:round;stroke-miterlimit:10;" d="
						M102.881,181.999c0,0,0.392,1.443,1.488,1.913c1.096,0.47,4.423,0.274,5.049-0.117c0.626-0.391,0.939-1.67,0.939-1.67"/>
					<path style="fill:none;stroke:#263238;stroke-linecap:round;stroke-linejoin:round;stroke-miterlimit:10;" d="M102.529,181.916
						c0,0,3.312,0.939,8.271,0"/>
				</g>
				<polygon style="fill:#999999;stroke:#263238;stroke-linecap:round;stroke-linejoin:round;stroke-miterlimit:10;" points="
					90.185,197.044 78.011,200.411 78.011,227.497 105.682,227.497 				"/>
				<polygon style="fill:#999999;stroke:#263238;stroke-linecap:round;stroke-linejoin:round;stroke-miterlimit:10;" points="
					136.033,201.176 120.735,196.339 107.948,227.497 136.033,227.497 				"/>
				<polygon style="fill:#BFBFBF;stroke:#263238;stroke-linecap:round;stroke-linejoin:round;stroke-miterlimit:10;" points="
					113.311,227.505 122.319,217.022 116.75,211.681 125.286,206.926 122.348,197.111 118.743,195.385 107.775,227.505 				"/>
				<polygon style="fill:#BFBFBF;stroke:#263238;stroke-linecap:round;stroke-linejoin:round;stroke-miterlimit:10;" points="
					91.066,218.101 100.039,227.505 106.02,227.505 94.028,195.385 90.185,197.044 87.308,206.163 96.021,213.066 				"/>
			</g>
		</g>
		<g>
			<path style="fill:#263238;" d="M134.276,110.619v1.791c0,2.205-1.063,3.405-3.228,3.405h-1.023v5.177h-2.165v-13.779h3.188
				C133.213,107.214,134.276,108.415,134.276,110.619z M130.024,109.183v4.665h1.023c0.689,0,1.063-0.315,1.063-1.299v-2.067
				c0-0.984-0.374-1.299-1.063-1.299H130.024z"/>
			<path style="fill:#263238;" d="M139.809,120.993c-0.118-0.354-0.197-0.571-0.197-1.693v-2.165c0-1.28-0.433-1.752-1.417-1.752
				h-0.748v5.61h-2.165v-13.779h3.267c2.244,0,3.208,1.043,3.208,3.169v1.082c0,1.417-0.453,2.323-1.417,2.775v0.039
				c1.083,0.453,1.437,1.477,1.437,2.914v2.125c0,0.67,0.02,1.162,0.236,1.673H139.809z M137.447,109.183v4.232h0.846
				c0.807,0,1.299-0.354,1.299-1.457V110.6c0-0.984-0.335-1.417-1.103-1.417H137.447z"/>
			<path style="fill:#263238;" d="M143.02,110.521c0-2.205,1.161-3.464,3.287-3.464c2.126,0,3.287,1.26,3.287,3.464v7.164
				c0,2.205-1.161,3.465-3.287,3.465c-2.126,0-3.287-1.26-3.287-3.465V110.521z M145.186,117.824c0,0.984,0.433,1.358,1.122,1.358
				c0.689,0,1.122-0.374,1.122-1.358v-7.44c0-0.984-0.433-1.358-1.122-1.358c-0.689,0-1.122,0.374-1.122,1.358V117.824z"/>
			<path style="fill:#263238;" d="M153.16,113.335h2.795v1.969h-2.795v5.688h-2.166v-13.779h5.728v1.969h-3.563V113.335z"/>
			<path style="fill:#263238;" d="M157.768,107.214h2.165v13.779h-2.165V107.214z"/>
			<path style="fill:#263238;" d="M161.509,107.214h2.165v11.811h3.563v1.968h-5.728V107.214z"/>
			<path style="fill:#263238;" d="M170.348,113.021h2.972v1.969h-2.972v4.035h3.74v1.968h-5.905v-13.779h5.905v1.969h-3.74V113.021z
				"/>
			<path style="fill:#263238;" d="M178.48,107.214h3.425c2.165,0,3.228,1.201,3.228,3.405v6.968c0,2.205-1.063,3.405-3.228,3.405
				h-3.425V107.214z M180.646,109.183v9.842h1.22c0.689,0,1.103-0.354,1.103-1.339v-7.164c0-0.984-0.414-1.338-1.103-1.338H180.646z
				"/>
			<path style="fill:#263238;" d="M193.502,120.993h-2.185l-0.374-2.5h-2.657l-0.374,2.5h-1.988l2.205-13.779h3.169L193.502,120.993
				z M188.561,116.623h2.086l-1.023-6.968h-0.039L188.561,116.623z"/>
			<path style="fill:#263238;" d="M193.13,107.214h6.693v1.969h-2.264v11.81h-2.165v-11.81h-2.264V107.214z"/>
			<path style="fill:#263238;" d="M207.029,120.993h-2.185l-0.374-2.5h-2.657l-0.374,2.5h-1.988l2.205-13.779h3.169L207.029,120.993
				z M202.088,116.623h2.086l-1.023-6.968h-0.039L202.088,116.623z"/>
		</g>
		
			<line style="fill:none;stroke:#263238;stroke-linecap:round;stroke-linejoin:round;stroke-miterlimit:10;" x1="78.056" y1="131.7" x2="256.263" y2="131.7"/>
		<g>
			<path style="fill:#263238;" d="M147.755,146.326h43.559c0.992,0,1.795-0.804,1.795-1.795c0-0.992-0.804-1.795-1.795-1.795
				h-43.559c-0.991,0-1.795,0.804-1.795,1.795C145.96,145.522,146.763,146.326,147.755,146.326z"/>
			<path style="fill:#263238;" d="M207.776,155.082h-60.021c-0.991,0-1.795,0.804-1.795,1.795c0,0.991,0.804,1.795,1.795,1.795
				h60.021c0.992,0,1.795-0.804,1.795-1.795C209.571,155.886,208.768,155.082,207.776,155.082z"/>
			<path style="fill:#263238;" d="M174.852,167.429h-27.097c-0.991,0-1.795,0.804-1.795,1.795c0,0.991,0.804,1.795,1.795,1.795
				h27.097c0.991,0,1.795-0.804,1.795-1.795C176.647,168.233,175.843,167.429,174.852,167.429z"/>
			<path style="fill:#263238;" d="M207.776,179.776h-60.021c-0.991,0-1.795,0.804-1.795,1.795c0,0.991,0.804,1.795,1.795,1.795
				h60.021c0.992,0,1.795-0.804,1.795-1.795C209.571,180.579,208.768,179.776,207.776,179.776z"/>
			<path style="fill:#263238;" d="M183.083,192.122h-35.328c-0.991,0-1.795,0.804-1.795,1.795c0,0.992,0.804,1.795,1.795,1.795
				h35.328c0.992,0,1.795-0.804,1.795-1.795C184.878,192.926,184.074,192.122,183.083,192.122z"/>
			
				<rect x="145.96" y="206.266" style="fill:#BFBFBF;stroke:#263238;stroke-linecap:round;stroke-linejoin:round;stroke-miterlimit:10;" width="19.459" height="19.459"/>
			
				<rect x="175.96" y="206.266" style="fill:#BFBFBF;stroke:#263238;stroke-linecap:round;stroke-linejoin:round;stroke-miterlimit:10;" width="19.459" height="19.459"/>
			
				<rect x="205.959" y="206.266" style="fill:#BFBFBF;stroke:#263238;stroke-linecap:round;stroke-linejoin:round;stroke-miterlimit:10;" width="19.459" height="19.459"/>
		</g>
		<g>
			<g>
				<g>
					<circle style="fill:none;stroke:#263238;stroke-width:5;stroke-miterlimit:10;" cx="107.925" cy="269.296" r="17.363"/>
					<path style="fill:none;stroke:#92E3A9;stroke-width:5;stroke-linecap:round;stroke-linejoin:round;stroke-miterlimit:10;" d="
						M125.288,269.296c0,9.589-7.774,17.363-17.363,17.363c-9.589,0-17.363-7.774-17.363-17.363c0-9.589,7.774-17.363,17.363-17.363
						"/>
				</g>
				<path style="fill:#263238;" d="M121.473,296.474H94.376c-0.991,0-1.795,0.804-1.795,1.795s0.804,1.795,1.795,1.795h27.097
					c0.992,0,1.795-0.804,1.795-1.795S122.465,296.474,121.473,296.474z"/>
			</g>
			<g>
				<g>
					<circle style="fill:none;stroke:#263238;stroke-width:5;stroke-miterlimit:10;" cx="165.182" cy="269.296" r="17.363"/>
					<path style="fill:none;stroke:#92E3A9;stroke-width:5;stroke-linecap:round;stroke-linejoin:round;stroke-miterlimit:10;" d="
						M177.46,281.573c-3.142,3.142-7.483,5.086-12.278,5.086c-9.589,0-17.363-7.774-17.363-17.363
						c0-9.589,7.774-17.363,17.363-17.363"/>
				</g>
				<path style="fill:#263238;" d="M178.731,296.474h-27.097c-0.991,0-1.795,0.804-1.795,1.795s0.804,1.795,1.795,1.795h27.097
					c0.992,0,1.795-0.804,1.795-1.795S179.722,296.474,178.731,296.474z"/>
			</g>
			<g>
				<g>
					<circle style="fill:none;stroke:#263238;stroke-width:5;stroke-miterlimit:10;" cx="222.439" cy="269.296" r="17.363"/>
					<path style="fill:none;stroke:#92E3A9;stroke-width:5;stroke-linecap:round;stroke-linejoin:round;stroke-miterlimit:10;" d="
						M222.439,286.659c-9.589,0-17.363-7.774-17.363-17.363c0-9.589,7.774-17.363,17.363-17.363"/>
				</g>
				<path style="fill:#263238;" d="M235.988,296.474h-27.097c-0.991,0-1.795,0.804-1.795,1.795s0.804,1.795,1.795,1.795h27.097
					c0.991,0,1.795-0.804,1.795-1.795S236.979,296.474,235.988,296.474z"/>
			</g>
		</g>
		
			<rect x="78.056" y="323.37" style="fill:#BFBFBF;stroke:#263238;stroke-linecap:round;stroke-linejoin:round;stroke-miterlimit:10;" width="33.502" height="33.502"/>
		<g>
			<path style="fill:#263238;" d="M121.755,326.96h103.559c0.992,0,1.795-0.804,1.795-1.795c0-0.991-0.804-1.795-1.795-1.795
				H121.755c-0.991,0-1.795,0.804-1.795,1.795C119.959,326.157,120.763,326.96,121.755,326.96z"/>
			<path style="fill:#263238;" d="M241.776,335.717H121.755c-0.991,0-1.795,0.804-1.795,1.795c0,0.991,0.804,1.795,1.795,1.795
				h120.021c0.992,0,1.795-0.804,1.795-1.795C243.571,336.52,242.768,335.717,241.776,335.717z"/>
			<path style="fill:#263238;" d="M238.852,348.063H121.755c-0.991,0-1.795,0.804-1.795,1.795c0,0.991,0.804,1.795,1.795,1.795
				h117.097c0.991,0,1.795-0.804,1.795-1.795C240.647,348.867,239.843,348.063,238.852,348.063z"/>
			<path style="fill:#263238;" d="M241.776,360.41H121.755c-0.991,0-1.795,0.804-1.795,1.795c0,0.991,0.804,1.795,1.795,1.795
				h120.021c0.992,0,1.795-0.804,1.795-1.795C243.571,361.214,242.768,360.41,241.776,360.41z"/>
			<path style="fill:#263238;" d="M147.083,372.757h-25.328c-0.991,0-1.795,0.804-1.795,1.795c0,0.991,0.804,1.795,1.795,1.795
				h25.328c0.992,0,1.795-0.804,1.795-1.795C148.878,373.56,148.074,372.757,147.083,372.757z"/>
		</g>
		
			<rect x="78.056" y="388.37" style="fill:#BFBFBF;stroke:#263238;stroke-linecap:round;stroke-linejoin:round;stroke-miterlimit:10;" width="33.502" height="33.502"/>
		<g>
			<path style="fill:#263238;" d="M121.755,391.96h103.559c0.992,0,1.795-0.804,1.795-1.795c0-0.991-0.804-1.795-1.795-1.795
				H121.755c-0.991,0-1.795,0.804-1.795,1.795C119.959,391.157,120.763,391.96,121.755,391.96z"/>
			<path style="fill:#263238;" d="M241.776,400.717H121.755c-0.991,0-1.795,0.804-1.795,1.795c0,0.991,0.804,1.795,1.795,1.795
				h120.021c0.992,0,1.795-0.804,1.795-1.795C243.571,401.52,242.768,400.717,241.776,400.717z"/>
			<path style="fill:#263238;" d="M238.852,413.063H121.755c-0.991,0-1.795,0.804-1.795,1.795c0,0.991,0.804,1.795,1.795,1.795
				h117.097c0.991,0,1.795-0.804,1.795-1.795C240.647,413.867,239.843,413.063,238.852,413.063z"/>
			<path style="fill:#263238;" d="M241.776,425.41H121.755c-0.991,0-1.795,0.804-1.795,1.795c0,0.991,0.804,1.795,1.795,1.795
				h120.021c0.992,0,1.795-0.804,1.795-1.795C243.571,426.214,242.768,425.41,241.776,425.41z"/>
			<path style="fill:#263238;" d="M147.083,437.757h-25.328c-0.991,0-1.795,0.804-1.795,1.795c0,0.991,0.804,1.795,1.795,1.795
				h25.328c0.992,0,1.795-0.804,1.795-1.795C148.878,438.56,148.074,437.757,147.083,437.757z"/>
		</g>
	</g>
</g>
<g id="Character">
	<g>
		<polyline style="fill:#FFFFFF;stroke:#263238;stroke-linecap:round;stroke-linejoin:round;stroke-miterlimit:10;" points="
			280.725,99.353 289.187,111.744 281.325,117.742 274.282,107.254 		"/>
		<polygon style="fill:#92E3A9;stroke:#263238;stroke-linecap:round;stroke-linejoin:round;stroke-miterlimit:10;" points="
			291.521,112.228 285.013,103.407 275.479,110.593 280.199,119.357 		"/>
		<g>
			<defs>
				<path id="XMLID_500_" d="M346.94,157.61l-0.22,29.27c0,0-3.55-1.76-8.63-4.4c-9.15-4.77-23.25-12.38-30.37-17.63
					c-1.91-1.41-3.32-2.65-4-3.62c-4.61-6.59-27.33-45.47-27.33-45.47l12.17-8.77l22,32.46l5.4,7.96l0.5,0.17L346.94,157.61z"/>
			</defs>
			<use xlink:href="#XMLID_500_"  style="overflow:visible;fill:#999999;"/>
			<clipPath id="XMLID_00000165201718495462970030000000935822414666509952_">
				<use xlink:href="#XMLID_500_"  style="overflow:visible;"/>
			</clipPath>
			<g style="clip-path:url(#XMLID_00000165201718495462970030000000935822414666509952_);">
				<path style="opacity:0.3;fill-opacity:0.7;" d="M342.03,169.22l-3.94,13.26c-9.15-4.77-23.25-12.38-30.37-17.63
					C321.67,167.51,342.03,169.22,342.03,169.22z"/>
				<path style="opacity:0.3;fill-opacity:0.7;" d="M316.46,147.58c-4.32,1.15-5.66,4-5.66,4c-2.04-5.31-1.39-9.38-0.24-12.13
					l5.4,7.96L316.46,147.58z"/>
			</g>
			
				<use xlink:href="#XMLID_500_"  style="overflow:visible;fill:none;stroke:#263238;stroke-linecap:round;stroke-linejoin:round;stroke-miterlimit:10;"/>
		</g>
		<g>
			
				<path id="XMLID_499_" style="fill:#FFFFFF;stroke:#263238;stroke-linecap:round;stroke-linejoin:round;stroke-miterlimit:10;" d="
				M281.204,101.709c0.312-0.595,0.525-1.383,0.595-2.28c0.075-0.958-0.009-2.04-0.297-3.164c-0.251-0.982-0.655-1.998-1.251-2.998
				c-0.483-0.807-0.901-1.724-1.252-2.649c-0.237-0.614-0.444-1.238-0.626-1.826c-0.619-2.043-0.902-3.723-0.902-3.723
				s-1.957-0.665-2.215,1.274c-0.068,0.497-0.022,1.041,0.068,1.594c0.157,0.907,0.443,1.831,0.62,2.579
				c0.138,0.586,0.202,1.062,0.077,1.333c-0.08,0.168-0.171,0.327-0.279,0.462c0,0-0.01,0.01-0.019,0.048
				c-0.039,0.055-0.082,0.107-0.124,0.159c-0.256,0.305-0.578,0.548-0.916,0.683c-0.161,0.065-0.322,0.104-0.488,0.112
				c-0.03,0.011-0.084,0.019-0.135,0.011c-0.119-0.007-0.241-0.017-0.367-0.044c-0.562-0.096-1.199-0.35-1.866-0.698l-0.004-0.003
				c-0.822-0.428-1.681-1.004-2.491-1.605l-0.003-0.003c-0.294-0.226-0.589-0.451-0.862-0.678c-0.821-0.659-1.534-1.307-2.025-1.798
				c-0.453-0.455-0.951-0.94-1.465-1.4c-0.49-0.451-0.993-0.874-1.481-1.244c-1.426-1.072-2.718-1.616-3.169-0.519
				c-0.41,0.991,0.083,1.431,1.231,2.491c0.4,0.372,0.876,0.816,1.424,1.381c0.754,0.786,1.632,1.802,2.616,3.195
				c0.003,0.003,0.003,0.003,0.003,0.003c0.105,0.14,0.208,0.289,0.314,0.442l-0.418,0.574c0.071,0.113-0.185,0.036-0.663-0.192
				c-0.003-0.003-0.003-0.003-0.003-0.003c-0.773-0.368-2.125-1.134-3.603-2.117c-0.528-0.348-1.077-0.73-1.617-1.128
				c-0.488-0.356-0.972-0.729-1.437-1.109c-2.315-1.888-2.855,0.285-2.467,1.24c0.222,0.56,1.188,1.316,2.285,2.123
				c0.533,0.392,1.093,0.797,1.615,1.192c0.26,0.2,0.509,0.396,0.741,0.59c0.967,0.797,1.979,1.609,2.679,2.173
				c0.097,0.079,0.187,0.151,0.27,0.216l-0.236,0.911c-0.147-0.033-0.29-0.07-0.426-0.107c-0.003-0.003-0.003-0.003-0.007-0.007
				c-1.546-0.401-2.71-0.851-3.623-1.266c-0.796-0.364-1.398-0.704-1.88-0.948c-0.908-0.47-1.396-0.629-1.971-0.091
				c-0.641,0.6-0.018,1.552,0.981,2.406c0.788,0.673,1.814,1.282,2.653,1.608l0.004,0.003c0.188,0.073,0.366,0.129,0.53,0.172
				c0.689,0.178,1.514,0.596,2.558,1.214c0.155,0.094,0.321,0.198,0.489,0.298l0.173,0.737c-0.279-0.02-0.547-0.049-0.799-0.083
				c-0.003-0.003-0.007,0-0.007,0c-0.983-0.119-1.807-0.293-2.5-0.46l-0.004-0.003c-0.853-0.207-1.509-0.399-2.015-0.45
				c-0.513-0.057-0.87,0.034-1.124,0.4c-0.391,0.58,0.223,1.227,1.149,1.754c0.537,0.304,1.174,0.564,1.776,0.744
				c0.526,0.155,1.02,0.253,1.403,0.266c0.566,0.022,1.557,0.299,2.603,0.65c0.342,0.119,0.695,0.242,1.037,0.368
				c1.242,0.45,2.38,0.921,2.771,1.086c0.096,0.038,0.147,0.06,0.147,0.06c0.825,0.536,1.538,0.967,2.178,1.323
				c1.961,1.085,3.224,1.423,4.927,1.603c0.639,0.07,1.393-0.271,2.173-0.847"/>
			<path style="fill:none;stroke:#263238;stroke-linecap:round;stroke-linejoin:round;stroke-miterlimit:10;" d="M274.057,93.324
				c0,0-2.688,3.293-0.464,6.456"/>
		</g>
		<path style="fill:none;stroke:#263238;stroke-linecap:round;stroke-linejoin:round;stroke-miterlimit:10;" d="M323.904,168.195
			c0,0,3.408,6.318,12.25,11.868"/>
		<path style="fill:none;stroke:#263238;stroke-linecap:round;stroke-linejoin:round;stroke-miterlimit:10;" d="M315.964,147.408
			c0,0-6.968,0.518-4.801,7.342"/>
		<path style="fill:#263238;" d="M434.435,423.868c0,0-19.237,16.408-29.266,19.074c-10.029,2.666-7.163,10.218-7.163,10.218h23.401
			l10.029-2.156v2.219h6.208c0,0,5.513-2.836,4.151-17.001C441.71,435.354,434.435,423.868,434.435,423.868z"/>
		<path style="fill:#263238;" d="M226.435,428.868c0,0-16.237,11.408-26.266,14.074c-10.029,2.666-7.163,10.218-7.163,10.218h23.401
			l10.029-2.156v2.219h6.208c0,0,5.513-2.836,4.151-17.001c-0.083-0.867-0.193-1.776-0.33-2.729
			C234.076,416.954,226.435,428.868,226.435,428.868z"/>
		<g>
			<defs>
				<path id="XMLID_497_" d="M420.55,436.8c0,0-60.28-48.73-63.72-55.06c-3.45-6.33-10.27-64.29-10.27-64.29s0,0-0.01,0.01
					c-0.88,0.62-57.38,40.73-60,44.62c-0.18,0.27-0.55,0.85-1.09,1.71c-7.48,11.85-46.93,76.01-46.93,76.01
					c-11.08,0.41-17.41-7.42-17.41-7.42l40.64-87.59l59.56-58.24c0,0,0,0,0.01,0l0.89-0.88l5.68-22.71l51.09-6.21
					c0,0,4.4,16.21,6.75,28.92c0.08,0.45,0.13,1.27,0.15,2.42c0.26,14.26-3.82,78.25-1.7,83.62c2.28,5.81,50.91,51.44,50.91,51.44
					C435.63,433.48,420.55,436.8,420.55,436.8z"/>
			</defs>
			<use xlink:href="#XMLID_497_"  style="overflow:visible;fill:#757575;"/>
			<clipPath id="XMLID_00000069374154821157583140000014292978230439393727_">
				<use xlink:href="#XMLID_497_"  style="overflow:visible;"/>
			</clipPath>
			<g style="clip-path:url(#XMLID_00000069374154821157583140000014292978230439393727_);">
				<path style="opacity:0.3;fill-opacity:0.7;" d="M346.56,317.45c0,0,0,0-0.01,0.01c-0.88,0.62-57.38,40.73-60,44.62
					c-0.18,0.27-0.55,0.85-1.09,1.71c-2.18-14.39,38.44-44.86,38.44-44.86l-8.24-4.26l16.22-2.39c-5.62-2.6-3.76-9.69-3.76-9.69
					L346.56,317.45z"/>
				<path style="opacity:0.3;fill-opacity:0.7;" d="M349.91,294.27l2.68,4c-15.88-3.51-25.81-8.36-31.26-11.72l0.89-0.88l5.68-22.71
					l51.09-6.21c0,0,4.4,16.21,6.75,28.92c0.08,0.45,0.13,1.27,0.15,2.42C372.37,293.35,349.91,294.27,349.91,294.27z"/>
			</g>
			
				<use xlink:href="#XMLID_497_"  style="overflow:visible;fill:none;stroke:#263238;stroke-linecap:round;stroke-linejoin:round;stroke-miterlimit:10;"/>
		</g>
		<g>
			<defs>
				<path id="XMLID_501_" d="M391.4,212.21c-2.86,16.09-14.34,35.72-14.34,35.72l2.7,8.41l7.21,22.49l-39.41,11.74l-7.17-13.47
					l-6.61,12.49l-13.42-5.38l1.1-5.66l2.54-13.1c-0.06-0.74-0.11-1.52-0.17-2.32c-1.65-24.34-1.48-74.29,21.25-106.01
					c0,0,33.74,4.7,46.09,42.43C392.32,203.07,392.23,207.49,391.4,212.21z"/>
			</defs>
			<use xlink:href="#XMLID_501_"  style="overflow:visible;fill:#999999;"/>
			<clipPath id="XMLID_00000080893108166889960600000018170348426157408157_">
				<use xlink:href="#XMLID_501_"  style="overflow:visible;"/>
			</clipPath>
			<path style="opacity:0.3;clip-path:url(#XMLID_00000080893108166889960600000018170348426157408157_);fill-opacity:0.7;" d="
				M377.06,247.93l2.7,8.41c-6.72,6.21-14.82,13.72-15.59,14.66c-0.99,1.21-28.62,5.45-42.71,7.55l2.54-13.1
				c-0.06-0.74-0.11-1.52-0.17-2.32L381,216l10.4-3.79C388.54,228.3,377.06,247.93,377.06,247.93z"/>
			
				<use xlink:href="#XMLID_501_"  style="overflow:visible;fill:none;stroke:#263238;stroke-linecap:round;stroke-linejoin:round;stroke-miterlimit:10;"/>
		</g>
		<g>
			<path style="fill:#92E3A9;stroke:#263238;stroke-linecap:round;stroke-linejoin:round;stroke-miterlimit:10;" d="
				M337.693,221.497c0,0,55.316-44.821,34.899-51.861C354.201,163.294,330.703,177.556,337.693,221.497z"/>
			<path style="fill:#263238;" d="M357.514,185.652l-7.602,3.286c0,0-6.009,14.124-7.417,30.881l-5.867,7.412l-1.643-7.412
				c0,0,2.862-22.433,12.578-31.585l2.349-8.917l9.173-4.693L357.514,185.652z"/>
			<path style="fill:#BFBFBF;stroke:#263238;stroke-linecap:round;stroke-linejoin:round;stroke-miterlimit:10;" d="
				M338.271,218.663c0,0,43.649-30.547,33.582-51.003c0,0,11.943-0.313,6.898,29.021l-14.579,4.245l4.067,8.156
				c0,0-16.421,3.323-31.61,18.149l-5.925-34.89l4.283-3.168l-2.515-5.359c0,0,15.093-16.817,29.566-15.399
				c0,0-17.194,7.147-21.653,20.758C335.924,202.783,338.271,218.663,338.271,218.663z"/>
			<path style="fill:#92E3A9;stroke:#263238;stroke-linecap:round;stroke-linejoin:round;stroke-miterlimit:10;" d="
				M363.282,166.634c0,0-13.414,4.047-19.398,17.267l7.21-2.669l0.725,2.232l3.609,1.484v7.392c0,0,20.65-9.355,20.695-16.933
				C376.134,173.257,370.963,163.164,363.282,166.634z"/>
			<path style="fill:#FFFFFF;stroke:#263238;stroke-linecap:round;stroke-linejoin:round;stroke-miterlimit:10;" d="M376.42,155.27
				c-5.24,8.41-1.77,18.7-1.77,18.7s-15.63,11.66-20.55,8.42c0,0,0.29-4.24-0.23-10.05c-0.23-2.59-0.62-5.5-1.28-8.48
				c0,0,1.66-0.97,4.11-2.33C364.51,157.19,380.42,148.87,376.42,155.27z"/>
		</g>
		<g>
			
				<path id="XMLID_498_" style="fill:#FFFFFF;stroke:#263238;stroke-linecap:round;stroke-linejoin:round;stroke-miterlimit:10;" d="
				M275.224,294.97c0.485-0.382,0.967-0.873,1.362-1.361c0.343-0.428,0.621-0.848,0.779-1.198c0.235-0.516,0.867-1.327,1.589-2.162
				c0.24-0.271,0.487-0.551,0.734-0.82c0.888-0.979,1.754-1.853,2.056-2.152c0.072-0.074,0.112-0.113,0.112-0.113
				c0.809-0.56,1.478-1.056,2.05-1.514c1.747-1.404,2.539-2.444,3.351-3.951c1.08-1.985-1.999-7.212-3.668-9.197
				c-0.432-0.515-1.081-1.01-1.884-1.415c-0.858-0.433-1.891-0.765-3.04-0.925c-1.004-0.141-2.097-0.152-3.249,0.021
				c-0.93,0.141-1.937,0.18-2.926,0.154c-0.658-0.013-1.314-0.059-1.927-0.113c-2.125-0.202-3.787-0.577-3.787-0.577
				s-1.357,1.559,0.339,2.533c0.434,0.251,0.955,0.415,1.501,0.542c0.899,0.199,1.862,0.284,2.621,0.404
				c0.595,0.094,1.059,0.216,1.263,0.434c0.125,0.138,0.238,0.282,0.322,0.433c0,0,0.006,0.013,0.037,0.036
				c0.036,0.057,0.068,0.116,0.1,0.176c0.185,0.353,0.288,0.742,0.284,1.107c0,0.174-0.026,0.338-0.082,0.494
				c-0.001,0.032-0.014,0.085-0.042,0.129c-0.051,0.107-0.107,0.216-0.18,0.323c-0.302,0.483-0.778,0.977-1.353,1.462l-0.004,0.002
				c-0.708,0.598-1.567,1.175-2.43,1.696l-0.004,0.002c-0.32,0.187-0.641,0.373-0.954,0.541c-0.921,0.51-1.79,0.924-2.431,1.192
				c-0.593,0.247-1.23,0.524-1.851,0.825c-0.603,0.283-1.185,0.587-1.712,0.899c-1.533,0.912-2.526,1.902-1.682,2.735
				c0.761,0.755,1.356,0.466,2.771-0.194c0.496-0.229,1.088-0.501,1.817-0.794c1.013-0.399,2.286-0.827,3.948-1.209
				c0.004-0.002,0.004-0.002,0.004-0.002c0.169-0.045,0.346-0.083,0.528-0.123l0.373,0.604c0.132-0.023-0.037,0.185-0.429,0.54
				c-0.004,0.002-0.004,0.002-0.004,0.002c-0.634,0.575-1.855,1.536-3.325,2.531c-0.522,0.357-1.083,0.72-1.657,1.069
				c-0.514,0.316-1.043,0.623-1.571,0.909c-2.625,1.427-0.819,2.751,0.212,2.753c0.602,0.007,1.668-0.601,2.831-1.309
				c0.565-0.344,1.152-0.709,1.716-1.042c0.283-0.165,0.559-0.321,0.827-0.463c1.104-0.593,2.24-1.221,3.026-1.655
				c0.11-0.06,0.21-0.116,0.303-0.168l0.754,0.564c-0.086,0.123-0.175,0.242-0.261,0.354c-0.004,0.002-0.004,0.002-0.009,0.004
				c-0.958,1.278-1.815,2.186-2.545,2.873c-0.639,0.599-1.181,1.027-1.59,1.38c-0.779,0.662-1.112,1.054-0.832,1.789
				c0.313,0.821,1.43,0.606,2.598,0.004c0.921-0.474,1.874-1.193,2.494-1.846l0.004-0.002c0.139-0.147,0.258-0.29,0.36-0.425
				c0.426-0.57,1.125-1.175,2.093-1.907c0.146-0.108,0.305-0.222,0.462-0.34l0.748,0.12c-0.124,0.25-0.253,0.487-0.38,0.708
				c-0.004,0.002-0.002,0.006-0.002,0.006c-0.482,0.864-0.956,1.561-1.373,2.139l-0.004,0.002c-0.515,0.711-0.941,1.245-1.18,1.694
				c-0.247,0.453-0.298,0.818-0.056,1.192C273.554,295.95,274.385,295.627,275.224,294.97z"/>
			<polyline style="fill:#FFFFFF;stroke:#263238;stroke-linecap:round;stroke-linejoin:round;stroke-miterlimit:10;" points="
				281.163,272.402 295.369,267.569 299.04,276.751 287.049,280.726 			"/>
			<polygon style="fill:#92E3A9;stroke:#263238;stroke-linecap:round;stroke-linejoin:round;stroke-miterlimit:10;" points="
				296.46,265.45 286.218,269.357 290.586,280.467 300.295,278.268 			"/>
		</g>
		<path style="fill:#999999;stroke:#263238;stroke-linecap:round;stroke-linejoin:round;stroke-miterlimit:10;" d="M389.895,200.926
			c0,0-6.743-2.725-15.373,2.121c-5.286,2.967-31.61,44.094-30.638,42.216l-53.965,21.087l5.535,15.473
			c0,0,56.722-14.369,61.313-17.864c4.591-3.495,28.674-28.961,34.099-50.388"/>
		<path style="fill:none;stroke:#263238;stroke-linecap:round;stroke-linejoin:round;stroke-miterlimit:10;" d="M331.879,305.374
			c0,0,16.293,8.967,24.894,17.143"/>
		<path style="fill:none;stroke:#263238;stroke-linecap:round;stroke-linejoin:round;stroke-miterlimit:10;" d="M377.115,283.003
			c-0.137,0.217-0.664,9.033,4.61,12.669"/>
		<path style="fill:none;stroke:#263238;stroke-linecap:round;stroke-linejoin:round;stroke-miterlimit:10;" d="M381.725,280.726
			c0,0,2.901,1.703,1.055,27.549c-1.846,25.846-2.787,62.242-2.787,62.242s0.851,3.429,3.401,6.066
			c2.55,2.637,43.693,42.783,43.693,42.783"/>
		<path style="fill:none;stroke:#263238;stroke-linecap:round;stroke-linejoin:round;stroke-miterlimit:10;" d="M344.326,313.945
			c0,0-13.324,2.505-23.962,0.923"/>
		<path style="fill:none;stroke:#263238;stroke-linecap:round;stroke-linejoin:round;stroke-miterlimit:10;" d="M340.392,315.392
			c0,0-52.556,43.52-63.106,47.212"/>
		
			<line style="fill:none;stroke:#263238;stroke-linecap:round;stroke-linejoin:round;stroke-miterlimit:10;" x1="281.163" y1="360.654" x2="245.901" y2="420.626"/>
		<path style="fill:none;stroke:#263238;stroke-linecap:round;stroke-linejoin:round;stroke-miterlimit:10;" d="M344.011,283.901
			c0,0-2.228,12.769-3.619,14.879c-1.392,2.11,1.81,9.494,1.81,9.494"/>
		<path style="fill:none;stroke:#263238;stroke-linecap:round;stroke-linejoin:round;stroke-miterlimit:10;" d="M340.392,283.901
			c0,0-1.655,7.758-2.183,9.604c-0.527,1.846,2.183,2.582,2.183,2.582"/>
		<path style="fill:#BFBFBF;stroke:#263238;stroke-linecap:round;stroke-linejoin:round;stroke-miterlimit:10;" d="M334.985,230.209
			c0,0-1.788,11.077-1.26,16.352"/>
		<path style="fill:none;stroke:#263238;stroke-linecap:round;stroke-linejoin:round;stroke-miterlimit:10;" d="M381.725,225.725
			c0,0-9.262,6.857-17.554,6.593"/>
		<path style="fill:none;stroke:#263238;stroke-linecap:round;stroke-linejoin:round;stroke-miterlimit:10;" d="M343.883,245.263
			c0,0,3.755,2.88,6.029,1.297"/>
		<path style="fill:none;stroke:#263238;stroke-linecap:round;stroke-linejoin:round;stroke-miterlimit:10;" d="M377.058,247.933
			c0,0-5.091,2.848-6.146,5.749"/>
		<path style="fill:#263238;" d="M368.24,163.42c0,0-6.38,6.73-14.37,8.92c-0.23-2.59-0.62-5.5-1.28-8.48c0,0,1.66-0.97,4.11-2.33
			L368.24,163.42z"/>
		<g>
			<path style="fill:#FFFFFF;stroke:#263238;stroke-linecap:round;stroke-linejoin:round;stroke-miterlimit:10;" d="
				M370.301,164.918c-6.452,3.584-13.757,4.845-20.496,1.715c-2.382-1.106-3.54-15.449,0-28.125
				c5.717-20.469,22.264-21.151,35.593-8.976c7.047,6.436,2.722,19.236-6.107,28.392"/>
			<path style="fill:none;stroke:#263238;stroke-linecap:round;stroke-linejoin:round;stroke-miterlimit:10;" d="M360.105,139.775
				c0,0,5.539-0.787,8.134,5.185"/>
			<path style="fill:none;stroke:#263238;stroke-linecap:round;stroke-linejoin:round;stroke-miterlimit:10;" d="M354.097,137.201
				c0,0-0.857-2.484-3.004-2.53"/>
			<path style="fill:#FFFFFF;stroke:#263238;stroke-linecap:round;stroke-linejoin:round;stroke-miterlimit:10;" d="M350.83,151.577
				c0,0-2.554-2.644-1.752-4.148c0.827-1.551,1.612-0.608,3.517-1.94c1.983-1.387,2.119-3.46,2.119-3.46"/>
			<path style="fill:#263238;" d="M362.71,147.281c-0.259,0.662-0.771,1.081-1.143,0.935c-0.372-0.146-0.465-0.8-0.206-1.463
				c0.259-0.662,0.771-1.081,1.143-0.935C362.877,145.964,362.969,146.619,362.71,147.281z"/>
			<path style="fill:#263238;" d="M353.269,142.615c-0.259,0.662-0.771,1.081-1.143,0.935c-0.373-0.146-0.465-0.801-0.206-1.463
				s0.771-1.081,1.143-0.935C353.436,141.298,353.528,141.952,353.269,142.615z"/>
			<path style="fill:none;stroke:#263238;stroke-linecap:round;stroke-linejoin:round;stroke-miterlimit:10;" d="M349.912,154.742
				c0,0,5.257,2.414,9.173,2.468c0,0-1.985,4.238-5.418,3.862c-3.433-0.376-2.682-5.096-2.682-5.096"/>
			<path style="fill:#263238;" d="M374.266,133.016c0,0-5.635-4.528-18.025-6.609c0,0,0.055-7.552,2.844-10.288
				c2.789-2.736,5.086,2.897,5.086,2.897s7.037-1.931,19.429,6.598c12.392,8.529,6.472,28.261-9.236,36.661l-0.098-3.348
				c0,0,0.161-6.92-2.414-8.207c0,0,1.931-4.989-0.161-8.69C369.599,138.327,374.266,133.016,374.266,133.016z"/>
			<path style="fill:#FFFFFF;stroke:#263238;stroke-linecap:round;stroke-linejoin:round;stroke-miterlimit:10;" d="
				M371.852,153.133c0,0,4.506-5.472,8.207-3.54c3.701,1.931-4.506,13.672-8.207,11.503"/>
		</g>
	</g>
</g>
</svg>
